<svg width="700" height="500" viewBox="0 0 232 232" fill="none" xmlns="http://www.w3.org/2000/svg">
<path fill-rule="evenodd" clip-rule="evenodd" d="M96.4471 0.00485847C112.78 0.353955 120.743 23.3279 136.438 28.208C167.018 37.7165 211.516 12.3999 228.811 41.1618C244.16 66.6863 199.506 91.5715 192.201 120.942C184.183 153.181 206.944 194.97 184.759 218.286C163.155 240.991 125.431 230.683 96.4471 221.576C72.4011 214.02 51.329 195.995 39.0405 172.5C29.0207 153.343 43.8906 128.944 37.1449 108.193C30.1072 86.544 -4.46888 76.2006 0.483266 53.8921C5.28215 32.2741 36.9775 36.7542 55.2855 26.4735C69.8111 18.3169 80.0668 -0.345241 96.4471 0.00485847Z" fill="#8DD5E6"/>
</svg>